<svg width="27" height="27" viewBox="0 0 27 27" fill="none" xmlns="http://www.w3.org/2000/svg">
<g clip-path="url(#clip0_2_224)">
<rect width="27" height="27" rx="13.5" fill="url(#paint0_linear_2_224)"/>
<path d="M13.4927 2.0152C13.2604 2.04547 12.9886 2.16354 12.8017 2.31188C12.7224 2.37848 12.2834 2.81139 11.8246 3.27457C11.3687 3.73776 10.9552 4.14947 10.9127 4.18883L10.8306 4.25846V3.60455V2.95065L10.7343 2.72662C10.5757 2.36031 10.3123 2.13024 9.95264 2.04547C9.85068 2.02125 9.6043 2.01217 9.23047 2.02125L8.66406 2.03033L8.44883 2.13932C8.15713 2.28766 8.02119 2.42692 7.89092 2.70543L7.78613 2.93551L7.77197 5.09098L7.75781 7.24645L7.30469 7.70963C7.05547 7.96393 6.42393 8.60875 5.90283 9.14459C4.54062 10.5372 3.92324 11.1608 3.54658 11.515C3.24922 11.7935 3.20391 11.848 3.10762 12.0569C3.00283 12.287 3 12.2961 3 12.6381C3 12.9802 3.00283 12.9954 3.10479 13.2255C3.24072 13.5252 3.45313 13.7583 3.71367 13.8915C3.89209 13.9823 3.92891 13.9883 4.20361 13.9883C4.48682 13.9883 4.5123 13.9823 4.71338 13.8794C4.94561 13.7613 4.93145 13.7734 6.31348 12.3717C6.74961 11.9267 7.43213 11.2395 7.82861 10.8399C8.2251 10.4433 8.81982 9.84391 9.14551 9.50787C9.47402 9.17184 10.1169 8.51793 10.5757 8.05475C12.2891 6.32614 13.0056 5.59654 13.3397 5.24537L13.6824 4.88815L14.0053 5.2151C14.3366 5.55113 14.6057 5.8236 16.2114 7.43414C16.7184 7.94274 17.2791 8.50582 17.4575 8.69049C17.6359 8.87516 18.3949 9.63805 19.1426 10.3858C19.8902 11.1366 20.686 11.9358 20.9126 12.1689L21.3261 12.5897L20.6436 13.3314L19.961 14.0701L19.692 13.9793C19.2105 13.8128 18.9727 13.7764 18.3779 13.7764C17.803 13.7795 17.5765 13.8128 17.0327 13.9883L16.792 14.064L16.0415 13.2769C15.628 12.841 15.2514 12.4535 15.2032 12.4111C14.9342 12.1871 14.4669 12.3627 14.3734 12.7229C14.3536 12.7986 14.3423 13.4464 14.3423 14.5454V16.2558L14.2432 16.4556C13.9005 17.1671 13.7476 17.827 13.7476 18.599C13.7476 19.153 13.7929 19.4709 13.9373 19.9522C14.1979 20.8241 14.5717 21.4629 15.1976 22.1047C15.8064 22.7313 16.5229 23.1249 17.432 23.3307C17.6813 23.3882 17.82 23.4004 18.3213 23.4004C19.0095 23.4034 19.27 23.364 19.8223 23.1733C21.0769 22.7374 22.0482 21.8261 22.6231 20.5425C22.929 19.8584 23.0536 19.2045 23.0281 18.4385C23.0026 17.7422 22.8837 17.2337 22.592 16.5767L22.4362 16.2286L22.4249 15.1841C22.4164 14.6089 22.4192 14.0489 22.4306 13.9369L22.4476 13.731L22.5297 13.7946C22.7987 14.0005 23.3198 14.0549 23.6455 13.9157C23.739 13.8733 23.8607 13.8097 23.9174 13.7734C24.0392 13.6917 24.2402 13.4525 24.311 13.3072C24.481 12.953 24.4979 12.4716 24.3563 12.1417C24.2346 11.8571 24.1609 11.7602 23.7701 11.3848C23.569 11.1911 23.0253 10.6583 22.5637 10.1951C22.1021 9.73492 21.6178 9.25358 21.4932 9.12946C21.1505 8.79342 20.114 7.75504 19.1001 6.74088C18.6102 6.24742 17.9418 5.57838 17.6133 5.25446C17.2876 4.93053 16.7892 4.43405 16.5088 4.14948C15.0361 2.66305 14.7529 2.38453 14.5972 2.2695C14.3083 2.05455 13.9033 1.96071 13.4927 2.0152ZM15.9141 14.5454L16.3672 15.0631L16.3813 15.6019C16.3983 16.2256 16.421 16.3012 16.6362 16.4193C16.7807 16.498 16.9024 16.4889 17.0497 16.3921C17.2168 16.2831 17.2423 16.1741 17.2536 15.5232L17.2649 14.9389L17.3584 14.8996C17.4547 14.8542 17.8229 14.7603 17.8937 14.7603C17.9333 14.7603 17.939 14.8693 17.939 15.6927C17.939 16.5979 17.9418 16.6282 18.0041 16.7584C18.1202 17.0066 18.3156 17.0823 18.5422 16.9763C18.6385 16.9309 18.6866 16.8825 18.7291 16.7917C18.7857 16.6766 18.7886 16.6191 18.7886 15.7321C18.7886 15.1963 18.7999 14.7876 18.8141 14.7785C18.8424 14.7573 19.0378 14.7966 19.3182 14.8723L19.4937 14.9208L19.5022 15.5505C19.5107 16.1287 19.5164 16.1862 19.5702 16.2619C19.675 16.4132 19.7741 16.4708 19.9214 16.4708C20.0771 16.4708 20.1791 16.4072 20.2839 16.2437C20.3434 16.1499 20.3462 16.1135 20.3462 15.6352V15.1266L20.9211 14.4757L21.4932 13.8249L21.5073 15.1932L21.5215 16.5616L21.6801 16.8643C21.9973 17.4607 22.0879 17.8543 22.0879 18.6202C22.0879 19.1469 22.0851 19.1772 21.9944 19.5072C21.8245 20.1217 21.6659 20.4608 21.3346 20.9119C20.6124 21.8927 19.5759 22.4195 18.3694 22.4195C17.7436 22.4195 17.2508 22.3075 16.7608 22.0592C15.7555 21.5476 15.0588 20.6667 14.7728 19.5435C14.7048 19.2771 14.6991 19.2075 14.6991 18.6353C14.6991 18.0571 14.7048 17.9935 14.7728 17.712C14.8237 17.5061 14.9172 17.2639 15.0645 16.9551L15.2797 16.501V15.1539V13.8067L15.3703 13.9157C15.4213 13.9762 15.6648 14.2578 15.9141 14.5454Z" fill="#5EAB5C"/>
<path d="M16.268 17.6393C16.0075 17.7513 15.846 17.9844 15.8234 18.2811C15.8064 18.5021 15.846 18.6292 15.9876 18.8018C16.1859 19.044 16.5201 19.1015 16.8089 18.9441C17.296 18.6807 17.296 17.9602 16.8061 17.6908C16.6475 17.5999 16.4124 17.5788 16.268 17.6393Z" fill="#5EAB5C"/>
<path d="M19.9922 17.6636C19.8336 17.7423 19.7317 17.8513 19.6524 18.0359C19.5702 18.2206 19.5646 18.3629 19.6241 18.5476C19.6864 18.7353 19.7827 18.8533 19.9526 18.9502C20.3066 19.1591 20.7314 18.9835 20.8956 18.5627C20.9948 18.3114 20.9353 18.0511 20.7286 17.8331C20.519 17.6061 20.2386 17.5425 19.9922 17.6636Z" fill="#5EAB5C"/>
<path d="M17.6331 19.4769C17.585 19.5253 17.5368 19.601 17.5255 19.6464C17.4745 19.8674 17.6104 20.1459 17.8342 20.2701L17.9673 20.3457V20.6031C17.9673 20.9088 17.922 21.0208 17.7492 21.1571C17.5198 21.3327 17.2423 21.2903 17.1035 21.0572C16.9789 20.8453 16.775 20.812 16.6192 20.9785C16.5371 21.0663 16.5229 21.1026 16.5229 21.2206C16.5229 21.3962 16.5937 21.5476 16.7552 21.7141C16.9308 21.8988 17.112 21.9745 17.4009 21.9896C17.8087 22.0078 18.0721 21.8746 18.3241 21.5143C18.3496 21.478 18.3836 21.5022 18.5224 21.6505C18.7603 21.9079 18.9075 21.9775 19.2417 21.9896C19.5674 22.0017 19.76 21.9381 19.961 21.7504C20.2244 21.5022 20.2952 21.3145 20.2046 21.0965C20.0913 20.821 19.8138 20.7998 19.6665 21.0602C19.5532 21.2509 19.3238 21.3175 19.1086 21.2237C18.8764 21.1177 18.7914 20.9482 18.7886 20.5849V20.3367L18.8792 20.2973C18.9953 20.2458 19.1482 20.1036 19.2021 19.9946C19.2219 19.9492 19.2417 19.8462 19.2417 19.7675C19.2417 19.6434 19.2275 19.6131 19.1312 19.5102L19.0208 19.3921H18.3694H17.7181L17.6331 19.4769Z" fill="#5EAB5C"/>
<path d="M9.76854 12.4171C9.72323 12.4232 9.58446 12.4444 9.46268 12.4626C8.91327 12.5413 8.24774 12.7986 7.80594 13.1044C7.67567 13.1952 7.52274 13.2678 7.34432 13.3223C6.76375 13.4979 6.25399 13.7401 5.83202 14.0398C5.52049 14.2608 4.91444 14.9117 4.68788 15.2689C4.28006 15.9137 3.98553 16.7311 3.87791 17.5182C3.82694 17.8966 3.81844 19.4103 3.86375 19.7191C3.9827 20.5032 4.49813 21.2358 5.08436 21.4538C5.3619 21.5567 5.76122 21.5688 6.01893 21.481C6.50887 21.3115 6.8827 20.8937 7.08377 20.2943C7.15174 20.0854 7.15741 20.0279 7.18006 19.2256C7.21122 18.045 7.20838 15.9289 7.17157 15.7503C7.08377 15.3022 6.60233 15.1902 6.34461 15.5595C6.28514 15.6413 6.28514 15.6806 6.27098 17.7665C6.25682 19.8644 6.25682 19.8947 6.19452 20.0339C5.91131 20.6909 5.23446 20.6939 4.9286 20.043C4.80116 19.7645 4.79266 19.6828 4.80399 18.5566L4.81532 17.5001L4.90594 17.1428C5.07303 16.4587 5.43836 15.7745 5.88582 15.2901C6.33045 14.8118 6.78641 14.5363 7.49725 14.3213C7.72098 14.2547 7.88241 14.1851 7.98153 14.1155C8.38651 13.8279 8.85096 13.6099 9.31542 13.4858C9.64676 13.395 10.3831 13.3738 10.7456 13.4404C11.2695 13.5373 11.8812 13.8067 12.2324 14.0943C12.4193 14.2457 12.5354 14.3062 12.6431 14.3062C12.9291 14.3062 13.1698 13.9883 13.0962 13.7038C13.0537 13.5342 12.9348 13.398 12.6572 13.2012C12.1588 12.847 11.5386 12.5806 10.958 12.4747C10.7088 12.4293 9.93846 12.3899 9.76854 12.4171Z" fill="#5EAB5C"/>
<path d="M8.39505 16.9552C8.26478 17.0187 8.20247 17.0823 8.13451 17.2276C8.0014 17.5031 8.10335 17.8724 8.35257 18.0117C8.52816 18.1086 8.75472 18.0995 8.91048 17.9845C9.34661 17.6575 9.16253 16.9642 8.62445 16.9188C8.54515 16.9128 8.45452 16.9279 8.39505 16.9552Z" fill="#5EAB5C"/>
<path d="M11.4961 16.9673C11.0571 17.1853 11.0684 17.8422 11.5159 18.045C11.7821 18.1631 12.0681 18.0359 12.2041 17.7453C12.2862 17.5697 12.289 17.5092 12.2324 17.3306C12.1191 16.9915 11.7821 16.825 11.4961 16.9673Z" fill="#5EAB5C"/>
<path d="M9.36927 18.8139C9.27581 18.8745 9.18802 19.041 9.18802 19.159C9.18802 19.4557 9.4514 19.7191 9.71761 19.6888L9.7969 19.6797V19.9431C9.7969 20.2549 9.75726 20.3367 9.54769 20.4487C9.27581 20.594 8.98411 20.4396 8.89065 20.1036C8.83968 19.9068 8.74339 19.816 8.59329 19.816C8.40638 19.816 8.25345 20.0037 8.25345 20.2307C8.25345 20.488 8.52249 20.8967 8.80853 21.0753L8.93314 21.154V21.3993C8.93597 21.6293 8.98128 21.929 9.03509 22.0713C9.05491 22.1258 9.04925 22.1258 8.94446 22.0592C8.73773 21.929 8.49417 21.7292 8.23362 21.4689C7.95042 21.1904 7.86546 21.148 7.67005 21.2055C7.60774 21.2237 7.51429 21.2842 7.46048 21.3417C7.34153 21.478 7.31038 21.7081 7.39251 21.8897C7.45481 22.032 7.86546 22.48 8.12601 22.6859C9.02093 23.4003 10.1877 23.582 11.2752 23.1733C11.7878 22.9795 12.2126 22.6919 12.6233 22.256C12.9008 21.9623 12.9546 21.8685 12.9546 21.6838C12.9546 21.3993 12.8045 21.2116 12.5581 21.1843C12.3797 21.1662 12.3089 21.2116 11.9747 21.5415C11.7255 21.7898 11.2922 22.1349 11.2667 22.1077C11.2582 22.1016 11.2752 22.035 11.3007 21.9623C11.3262 21.8867 11.3517 21.6838 11.3602 21.4901L11.3772 21.151L11.5414 21.042C11.8161 20.8604 12.0116 20.5637 12.0427 20.2822C12.0908 19.8129 11.5358 19.6192 11.4225 20.0672C11.3743 20.261 11.2922 20.3821 11.1591 20.4487C11.0118 20.5274 10.9071 20.5274 10.757 20.4547C10.5672 20.3639 10.5191 20.261 10.5191 19.9582V19.7039L10.6578 19.6858C10.9325 19.6525 11.0855 19.4981 11.1081 19.2408C11.1166 19.1257 11.1053 19.0682 11.0543 18.9683C10.9439 18.7624 10.9212 18.7564 10.1452 18.7564C9.5222 18.7564 9.44856 18.7624 9.36927 18.8139ZM10.4992 21.1298C10.5785 21.1722 10.6805 21.2085 10.7258 21.2085H10.8108L10.7966 21.478C10.7683 22.0078 10.5106 22.3589 10.1509 22.3589C9.86204 22.3589 9.64964 22.1561 9.54485 21.7837C9.48538 21.5688 9.48255 21.2085 9.54202 21.2085C9.65247 21.2085 9.89886 21.0753 10.0121 20.9542L10.1367 20.8241L10.2444 20.9391C10.3038 21.0027 10.4171 21.0874 10.4992 21.1298Z" fill="#5EAB5C"/>
</g>
<defs>
<linearGradient id="paint0_linear_2_224" x1="0" y1="13.5" x2="27" y2="13.5" gradientUnits="userSpaceOnUse">
<stop stop-color="white"/>
<stop offset="1" stop-color="white"/>
</linearGradient>
<clipPath id="clip0_2_224">
<rect width="27" height="27" rx="13.5" fill="white"/>
</clipPath>
</defs>
</svg>
